<svg width="28" height="28" viewBox="0 0 28 28" fill="none" xmlns="http://www.w3.org/2000/svg">
<path d="M25.0837 9.90267V19.6875C25.0837 21.3792 23.7128 22.75 22.0212 22.75H5.97949C5.16727 22.75 4.38831 22.4273 3.81398 21.853C3.23965 21.2787 2.91699 20.4997 2.91699 19.6875V9.90267L13.6492 15.806C13.8679 15.9262 14.1333 15.9262 14.3515 15.806L25.0837 9.90208V9.90267ZM22.0212 5.25C22.8206 5.25007 23.5883 5.56276 24.1603 6.12125C24.7324 6.67975 25.0633 7.43978 25.0825 8.239L14.0003 14.3348L2.91816 8.23842L2.91933 8.18592C2.95199 7.39623 3.2887 6.64976 3.85902 6.10259C4.42935 5.55542 5.18913 5.24993 5.97949 5.25H22.0212Z" fill="white"/>
</svg>
