<svg width="178" height="88" viewBox="0 0 178 88" fill="none" xmlns="http://www.w3.org/2000/svg">
<path d="M168.994 46.3927L168.999 46.3882L168.994 46.3927Z" fill="black"/>
<path d="M169.134 36.7842C169.007 36.3814 168.87 35.9818 168.727 35.5885C168.475 34.9066 168.198 34.2374 167.896 33.5808C168.065 32.3851 167.307 31.4241 166.352 30.6756C164.143 27.0409 161.141 23.9549 157.588 21.7348C155.997 20.7389 154.303 19.9238 152.524 19.2863C152.482 19.2641 152.447 19.2387 152.403 19.2165C152.033 19.0262 151.642 18.8517 151.206 18.6868C150.152 18.2904 149.063 17.9859 147.959 17.748C146.256 17.0788 144.416 16.8473 142.547 17.0756C140.64 16.9836 138.803 17.0154 137.161 17.0851C136.998 17.0915 136.842 17.101 136.683 17.1105C134.748 16.8377 132.841 17.0534 131.084 17.7385C130.708 17.8083 130.339 17.8844 129.982 17.9637L129.884 17.9859C128.534 18.2967 126.745 18.7027 125.592 19.6288C124.141 20.206 122.747 20.9101 121.425 21.7348C118.013 23.8693 115.107 26.803 112.923 30.257C112.372 30.6376 111.863 31.0689 111.455 31.5986C110.866 32.3693 110.784 33.1305 111.006 33.8377C110.749 34.4118 110.507 34.9954 110.29 35.5885C110.144 35.9881 110.007 36.3941 109.876 36.8032C108.008 40.4919 106.827 44.4945 106.454 48.6081C105.499 49.8672 105.426 51.3008 106.346 52.69C106.448 55.1829 106.852 57.6885 107.587 60.1655C110.15 69.062 116.743 76.065 125.252 79.5126C125.863 79.928 126.493 80.2991 127.14 80.6258C128.107 81.3172 130.097 82.0626 134.108 82.5573H134.133C134.872 82.6493 135.607 82.7159 136.336 82.7698C136.6 82.8872 136.871 82.9506 137.154 82.9506C137.154 82.9506 137.177 82.9506 137.186 82.9506C137.384 82.9506 137.581 82.9157 137.778 82.8555C138.38 82.8808 138.982 82.8967 139.577 82.8967H139.574C140.137 82.8935 140.691 82.8777 141.242 82.8555C141.439 82.9157 141.633 82.9475 141.831 82.9506H141.863C142.14 82.9506 142.407 82.8904 142.668 82.7762C144.056 82.6683 145.399 82.4876 146.689 82.2338C147.223 82.1641 147.749 82.0753 148.264 81.9547C150.209 81.5012 152.059 80.6702 153.762 79.5157C162.274 76.0682 168.873 69.062 171.433 60.1655C172.244 57.4348 172.646 54.6659 172.69 51.9193C172.716 51.8622 172.741 51.8051 172.763 51.7448C173.05 50.8758 172.954 50.1114 172.63 49.4359C172.346 45.0273 171.133 40.7234 169.134 36.7842V36.7842ZM162.573 71.8879C161.679 72.2876 160.765 72.6238 159.836 72.9124C160.32 72.0909 160.762 71.2377 161.163 70.3465C162.519 68.8368 163.764 67.2066 164.875 65.4685C164.958 65.3385 165.037 65.2053 165.12 65.0721C166.518 66.0997 167.565 67.5428 166.365 69.2682C165.429 70.5241 163.955 71.2282 162.573 71.8879V71.8879ZM147.542 81.9674C147.271 82.0277 146.988 82.0784 146.711 82.1355C145.641 82.2751 144.543 82.3131 143.432 82.2465C143.477 82.2053 143.521 82.1641 143.562 82.1165C143.687 81.9833 143.804 81.8469 143.916 81.7042C146.447 81.5392 148.955 81.1142 151.378 80.3657C150.302 81.146 148.541 81.7391 147.538 81.9674H147.542ZM139.641 81.6471C139.596 81.6471 139.555 81.6471 139.51 81.6471C139.465 81.6471 139.424 81.6471 139.38 81.6471V81.6534C139.38 81.6534 139.37 81.6534 139.364 81.6534C137.269 80.8034 135.238 79.4523 133.318 77.6413C133.172 77.1021 133.045 76.5566 132.936 76.0142C134.035 75.8398 135.222 75.7129 136.553 75.6336C137.078 75.6019 137.641 75.5734 138.234 75.5512C139.341 75.567 140.414 75.5607 141.442 75.5385C142.942 75.5861 144.517 75.7224 146.084 76.0047C145.972 76.5534 145.845 77.1021 145.698 77.6445C143.782 79.4523 141.754 80.8034 139.66 81.6534C139.653 81.6534 139.65 81.6534 139.644 81.6534V81.6471H139.641ZM127.14 80.5243C126.907 80.353 126.742 80.1849 126.624 80.0295C126.742 80.0708 126.856 80.1152 126.974 80.1532C129.6 81.0349 132.338 81.5234 135.101 81.7042C135.216 81.8469 135.334 81.9833 135.454 82.1165C135.496 82.1641 135.54 82.2053 135.585 82.2465C133.933 82.3448 132.306 82.2243 130.769 81.8627C129.514 81.571 128.302 81.1174 127.14 80.5243V80.5243ZM111.879 68.2088C111.634 66.8577 112.611 65.7572 113.801 64.9167C113.913 65.1006 114.024 65.2846 114.139 65.4685C115.25 67.2066 116.494 68.8368 117.851 70.3465C118.258 71.2536 118.71 72.129 119.207 72.9631C119.207 72.9631 119.21 72.9695 119.213 72.9726C117.631 72.4905 116.167 71.9292 114.874 71.2726C114.428 71.0379 113.973 70.7747 113.553 70.4702C112.958 69.7439 112.401 68.9891 111.875 68.2088H111.879ZM106.935 49.0077C107.123 48.7381 107.355 48.4717 107.642 48.2116C107.903 47.9896 108.176 47.7771 108.466 47.5678C108.571 49.8387 108.889 52.0779 109.408 54.2695C108.864 53.9682 108.342 53.632 107.852 53.245C107.428 52.8866 107.094 52.5124 106.852 52.1286C106.827 51.082 106.852 50.0417 106.935 49.0045V49.0077ZM108.546 47.5139C110.647 46.0264 113.483 44.8719 116.733 43.9902C116.59 44.5103 116.45 45.0336 116.326 45.5601C115.485 49.068 115.056 52.6646 115.056 56.2517C115.056 56.3279 115.059 56.404 115.062 56.4801C114.728 56.3849 114.393 56.2898 114.062 56.1851C112.525 55.6523 110.94 55.1068 109.504 54.3202C108.972 52.0969 108.651 49.8165 108.546 47.5107V47.5139ZM108.511 46.3594C108.539 43.8379 108.816 41.4402 109.326 39.1788C109.95 37.6786 110.685 36.2197 111.522 34.8178C112.159 35.69 113.174 36.4195 114.059 36.8984C115.415 37.6025 116.934 38.1892 118.548 38.6777C117.886 40.2889 117.313 41.9508 116.832 43.6413C113.54 44.4374 110.659 45.4872 108.527 46.8415C108.523 46.6797 108.514 46.5211 108.511 46.3594V46.3594ZM116.313 28.5601C117.217 28.2144 118.143 27.9321 119.076 27.6911C120.324 27.3803 121.581 27.1107 122.842 26.8728C122.228 28.3413 121.702 29.9557 121.276 31.7191C121.101 32.4422 120.945 33.1876 120.808 33.9488C119.983 35.4458 119.235 37.003 118.576 38.6079C117.65 38.332 116.733 38.018 115.832 37.6532C114.435 37.076 112.522 36.134 111.554 34.7639C112.891 32.5374 114.492 30.4536 116.313 28.5601V28.5601ZM111.277 34.304C111.204 34.1613 111.14 34.0122 111.089 33.8599C111.649 32.6072 112.296 31.4019 113.025 30.2538C113.4 30.0001 113.782 29.7685 114.129 29.5592C114.524 29.3404 114.928 29.1437 115.339 28.9598C113.808 30.6154 112.448 32.4073 111.28 34.304H111.277ZM125.637 19.6986C126.891 19.2006 128.187 18.7978 129.524 18.487C129.062 18.7566 128.613 19.0611 128.187 19.4004C127.614 19.8572 127.073 20.3646 126.557 20.9165C126 21.1639 125.449 21.4271 124.905 21.703C124.87 21.6396 124.838 21.5794 124.816 21.5127C124.65 21.0719 124.778 20.6057 125.191 20.1236C125.325 19.9682 125.475 19.8254 125.64 19.6922L125.637 19.6986ZM152.469 19.3529C153.498 19.9333 153.978 20.5295 153.886 21.1322C153.867 21.2654 153.816 21.3954 153.746 21.5223C153.323 21.3129 152.896 21.1131 152.466 20.9197C151.951 20.3646 151.409 19.8572 150.836 19.4036C150.407 19.0611 149.961 18.7598 149.499 18.4902C150.512 18.7249 151.502 19.0103 152.469 19.3529V19.3529ZM166.253 30.6693C166.833 31.6176 167.355 32.6008 167.823 33.6157C167.804 33.7331 167.775 33.8568 167.737 33.9805C167.715 34.0439 167.686 34.1042 167.657 34.1676C166.6 32.4708 165.387 30.8596 164.038 29.3562C164.261 29.4609 164.48 29.5687 164.7 29.6829H164.694C165.193 29.9557 165.747 30.2855 166.253 30.6724V30.6693ZM167.39 34.6402C166.11 36.54 162.704 37.8721 160.421 38.5603C159.766 36.9745 159.027 35.4363 158.212 33.9551C158.075 33.1907 157.919 32.4422 157.744 31.7159C157.315 29.9461 156.786 28.3254 156.169 26.8506C157.216 27.0758 158.257 27.3327 159.291 27.6277C160.555 28.0051 161.822 28.4142 163.048 28.9185C164.697 30.6788 166.155 32.5976 167.393 34.6402H167.39ZM163.869 56.4325C161.532 57.1176 159.129 57.5902 156.716 57.9613C158.063 53.1911 158.798 48.218 158.906 43.118C160.004 43.3495 161.093 43.6096 162.172 43.9109C162.325 44.4628 162.475 45.0178 162.608 45.576C163.449 49.0775 163.875 52.6678 163.875 56.2454C163.875 56.3088 163.872 56.3723 163.872 56.4357L163.869 56.4325ZM144.428 80.7907C144.276 81.0476 144.11 81.295 143.932 81.5266C142.684 81.6344 141.43 81.6756 140.179 81.6566C141.63 81.4504 143.047 81.1618 144.428 80.7876V80.7907ZM139.968 81.6027C141.933 80.7622 143.836 79.4872 145.644 77.8062C145.355 78.8275 144.989 79.8139 144.489 80.6861C143.021 81.0857 141.516 81.3933 139.968 81.6058V81.6027ZM144.549 80.7558C146.552 80.2072 148.478 79.4904 150.298 78.596C150.731 78.3835 151.158 78.1583 151.581 77.9299C152.11 78.3327 152.349 78.7482 152.291 79.17C152.259 79.4047 152.132 79.6331 151.944 79.8519C149.398 80.7305 146.739 81.276 144.046 81.517C144.225 81.276 144.396 81.0223 144.549 80.7558ZM150.267 78.5167C148.471 79.3984 146.577 80.1057 144.607 80.6512C145.11 79.7504 145.482 78.7355 145.769 77.6857C145.966 77.4986 146.163 77.3146 146.357 77.118C146.644 76.8294 146.924 76.5312 147.201 76.2299C148.086 76.4361 148.961 76.6898 149.808 77.0133C150.225 77.1719 150.594 77.3368 150.938 77.5208C151.155 77.6381 151.339 77.7555 151.505 77.8728C151.097 78.0948 150.684 78.3105 150.267 78.5167ZM139.319 75.4275C137.237 75.4243 135.025 75.3545 132.777 75.2023C132.675 74.6377 132.583 74.0859 132.497 73.5562L132.446 73.2454C131.819 69.4553 131.498 65.3448 131.443 60.4098C131.701 60.3876 131.959 60.3654 132.217 60.3463C136.578 60.6476 140.955 60.6762 145.32 60.4288C145.925 60.3939 146.552 60.3527 147.182 60.3051C147.312 60.3146 147.44 60.3273 147.57 60.3368C147.516 65.3036 147.195 69.4331 146.568 73.2454L146.517 73.5562C146.431 74.0795 146.342 74.6251 146.24 75.1801C145.584 75.2308 144.925 75.2753 144.269 75.3101C143.082 75.3704 141.793 75.4116 140.443 75.4243C140.061 75.4243 139.688 75.4243 139.322 75.4275H139.319ZM134.522 80.6829C134.022 79.8107 133.656 78.8243 133.366 77.7999C135.174 79.4872 137.081 80.7622 139.048 81.6027C137.501 81.3933 135.989 81.0825 134.522 80.6829ZM138.832 81.6566C137.581 81.6756 136.327 81.6344 135.079 81.5266C134.901 81.2919 134.735 81.0476 134.582 80.7907C135.961 81.165 137.38 81.4536 138.832 81.6598V81.6566ZM134.407 80.6512C132.437 80.1057 130.539 79.3952 128.747 78.5167C128.247 78.2725 127.757 78.0092 127.27 77.7428C128.133 77.1307 129.412 76.7945 130.282 76.5661L130.441 76.5249C130.88 76.4075 131.332 76.3029 131.797 76.2077C132.08 76.5185 132.367 76.823 132.66 77.118C132.854 77.3114 133.048 77.4954 133.245 77.6825C133.532 78.7355 133.904 79.7536 134.41 80.6544L134.407 80.6512ZM115.142 56.2422C115.142 52.6646 115.568 49.0743 116.409 45.5728C116.539 45.0305 116.682 44.4945 116.829 43.9616C117.886 43.6762 118.981 43.4193 120.114 43.1909C120.229 48.2846 120.967 53.2514 122.317 58.0152C119.897 57.6536 117.497 57.1779 115.148 56.5023C115.148 56.4167 115.142 56.331 115.142 56.2422V56.2422ZM143.193 25.0142C143.235 25.1506 143.276 25.2838 143.314 25.4202C142.585 25.4012 141.856 25.3917 141.13 25.3853C139.316 25.3822 137.501 25.4044 135.687 25.4678C135.731 25.3155 135.776 25.1665 135.821 25.0174C137.056 25.1126 138.288 25.1601 139.507 25.1601C140.752 25.1633 141.98 25.1126 143.193 25.0142V25.0142ZM156.048 26.784C154.943 26.5493 153.829 26.3527 152.711 26.1846C151.963 25.3599 151.139 24.529 150.241 23.7202C151.393 23.3238 152.641 22.7719 153.367 22.1122C154.395 23.4443 155.29 25.0016 156.048 26.7808V26.784ZM158.823 43.0482C156.41 42.5502 153.962 42.195 151.527 41.9254C150.12 41.7795 148.455 41.6558 146.612 41.5639C146.587 41.3482 146.558 41.1325 146.529 40.9169C150.636 40.6092 154.717 40.0193 158.722 39.0836C158.785 40.1176 158.823 41.1833 158.833 42.2965C158.833 42.5471 158.823 42.7976 158.82 43.0482H158.823ZM147.663 60.3146C147.663 60.3146 147.663 60.2829 147.663 60.267C148.404 60.2099 149.149 60.1433 149.859 60.0736C151.986 59.8357 154.128 59.5724 156.254 59.2204C156.025 59.9626 155.783 60.6984 155.525 61.4279C152.937 60.8728 150.305 60.5208 147.663 60.3114V60.3146ZM155.513 61.4691C155.44 61.6721 155.369 61.8782 155.296 62.0812C153.405 67.232 151.008 71.5676 148.153 75.0088C147.548 75.0691 146.94 75.1198 146.332 75.1674C146.431 74.6187 146.52 74.0795 146.606 73.5626L146.657 73.2517C147.287 69.4394 147.612 65.3068 147.663 60.34C150.302 60.5525 152.928 60.9077 155.513 61.4659V61.4691ZM123.504 61.4437C123.25 60.7206 123.008 59.9943 122.782 59.2616C125.624 59.7183 128.486 60.0577 131.358 60.2797C131.358 60.3178 131.358 60.3527 131.358 60.3907C128.722 60.6096 126.099 60.9458 123.501 61.4437H123.504ZM131.361 60.4129C131.418 65.348 131.74 69.4616 132.367 73.2517L132.418 73.5626C132.504 74.0859 132.593 74.6314 132.695 75.1896C132.102 75.1484 131.507 75.1008 130.909 75.0501C128.037 71.6025 125.627 67.251 123.727 62.078C123.654 61.8782 123.587 61.6784 123.514 61.4818C126.105 60.9807 128.725 60.6381 131.358 60.4129H131.361ZM120.187 42.2902C120.194 41.2023 120.232 40.1588 120.292 39.1471C124.205 40.1335 128.534 40.6282 132.488 40.9073C132.459 41.1357 132.43 41.3609 132.402 41.5924C128.257 41.8113 124.045 42.2331 120.197 42.9277C120.194 42.7152 120.187 42.5027 120.184 42.2902H120.187ZM136.715 41.1389C139.956 41.2213 143.209 41.1579 146.447 40.9169C146.472 41.1294 146.501 41.3387 146.526 41.5544C142.461 41.3577 137.527 41.3228 132.491 41.5861C132.519 41.3609 132.548 41.1357 132.577 40.9137C134.019 41.0152 135.413 41.085 136.715 41.142V41.1389ZM132.589 40.809C133.112 36.7113 133.796 32.9624 134.652 29.4704L134.729 29.1596C135.022 27.9639 135.327 26.7206 135.687 25.4836C137.823 25.4044 139.962 25.3822 142.098 25.4107C142.509 25.417 142.919 25.4266 143.327 25.4361C143.69 26.6889 144.002 27.948 144.298 29.1596L144.374 29.4704C145.231 32.9624 145.915 36.7144 146.437 40.8185C141.831 41.1579 137.196 41.1325 132.593 40.809H132.589ZM146.533 41.5956C146.768 43.5271 146.969 45.5379 147.134 47.6344C147.443 51.4816 147.589 55.2971 147.583 58.9635C145.31 59.1252 143.034 59.2236 140.758 59.2458C137.651 59.2933 134.541 59.1982 131.44 58.9857C131.431 55.3098 131.58 51.4879 131.889 47.6344C132.055 45.5633 132.252 43.5779 132.481 41.6685C137.495 41.3704 142.426 41.3926 146.533 41.5956V41.5956ZM132.392 41.6749C132.163 43.581 131.966 45.5601 131.8 47.6249C131.491 51.4784 131.342 55.3034 131.351 58.9794C129.992 58.8842 128.633 58.77 127.28 58.6336C125.656 58.456 124.029 58.2594 122.415 58.0215C121.059 53.2482 120.318 48.2751 120.203 43.1687C124.039 42.398 128.241 41.9254 132.392 41.6749V41.6749ZM131.447 60.2861C131.654 60.3019 131.857 60.3178 132.064 60.3305C131.857 60.3463 131.654 60.3654 131.447 60.3812C131.447 60.3495 131.447 60.3178 131.447 60.2861V60.2861ZM147.573 60.2734C147.573 60.2734 147.573 60.2956 147.573 60.3051C147.503 60.2988 147.433 60.2924 147.36 60.2892C147.43 60.2829 147.5 60.2797 147.573 60.2734V60.2734ZM154.214 58.3101C152.04 58.5829 149.856 58.8017 147.669 58.9603C147.675 55.2876 147.529 51.4753 147.22 47.628C147.051 45.5348 146.851 43.5303 146.618 41.6019C148.439 41.6939 150.098 41.8176 151.524 41.9698C153.959 42.2394 156.407 42.5915 158.82 43.0958C158.712 48.2085 157.977 53.1943 156.624 57.9739C155.822 58.0976 155.016 58.2086 154.214 58.3133V58.3101ZM146.52 40.8122C145.995 36.7049 145.313 32.9465 144.454 29.4514L144.377 29.1405C144.081 27.9385 143.776 26.6857 143.413 25.4424C146.491 25.5249 149.573 25.7501 152.616 26.2068C153.498 27.1741 154.278 28.1351 154.952 29.0359C156.111 30.5868 157.174 32.2392 158.129 33.9741C158.41 35.5536 158.607 37.2187 158.718 38.9885C154.707 39.9083 150.626 40.5045 146.52 40.8122V40.8122ZM155.023 28.9883C154.364 28.1066 153.606 27.171 152.75 26.2258C153.861 26.3939 154.968 26.5937 156.067 26.8284C156.694 28.3127 157.229 29.9461 157.662 31.7349C157.817 32.3756 157.954 33.0353 158.079 33.7077C157.152 32.0553 156.134 30.4758 155.023 28.9915V28.9883ZM150.174 23.6599C147.516 21.2844 144.209 19.1213 140.255 17.9542C144.588 18.3855 148.866 19.5368 152.791 21.4113C152.969 21.6174 153.141 21.8267 153.313 22.0456C152.61 22.6926 151.374 23.2508 150.174 23.6631V23.6599ZM139.784 17.9098C143.903 19.0325 147.338 21.2463 150.082 23.6917C149.257 23.9676 148.455 24.1738 147.863 24.2911C146.373 24.5829 144.833 24.7922 143.257 24.9223C142.477 22.3596 141.442 19.8603 139.777 17.9098H139.784ZM147.882 24.3767C148.322 24.2911 149.197 24.0754 150.152 23.7519C151.034 24.5417 151.842 25.3536 152.581 26.1624C149.547 25.7152 146.478 25.4995 143.413 25.417C143.371 25.2775 143.33 25.1411 143.289 25.0016C144.858 24.8715 146.399 24.6654 147.885 24.3736L147.882 24.3767ZM135.598 25.4678C132.612 25.5756 129.629 25.7945 126.668 26.2036C126.567 26.2163 126.465 26.2353 126.363 26.2512C127.092 25.4488 127.891 24.64 128.76 23.8534C130.533 24.3577 132.242 24.6146 132.58 24.6622C133.63 24.8113 134.684 24.9223 135.738 25.0047C135.69 25.1601 135.645 25.3124 135.601 25.4678H135.598ZM132.589 24.5797C132.446 24.5575 130.664 24.3006 128.836 23.7836C131.596 21.3002 135.066 19.0452 139.239 17.9098C139.239 17.9098 139.239 17.9098 139.243 17.9098C137.578 19.8603 136.543 22.3627 135.763 24.9254C134.706 24.843 133.65 24.7288 132.593 24.5797H132.589ZM128.738 23.7583C127.496 23.403 126.248 22.9305 125.484 22.3342C125.723 22.0139 125.974 21.7094 126.229 21.4113C130.154 19.54 134.429 18.3887 138.762 17.9573C134.754 19.1404 131.412 21.3446 128.738 23.7583V23.7583ZM128.508 23.7805C128.559 23.7963 128.61 23.809 128.664 23.8249C127.779 24.6273 126.971 25.4519 126.232 26.2702C125.137 26.4256 124.052 26.6064 122.966 26.8094C123.67 25.1443 124.497 23.6758 125.436 22.4008C126.073 22.8988 127.101 23.3618 128.508 23.7805ZM126.194 26.3114C125.37 27.228 124.634 28.1351 123.998 28.9883C122.89 30.4695 121.871 32.0458 120.945 33.695C121.069 33.0258 121.206 32.3693 121.362 31.7318C121.795 29.9525 122.326 28.3254 122.947 26.8474C124.026 26.6445 125.109 26.4637 126.194 26.3114V26.3114ZM124.068 29.0359C124.723 28.1605 125.475 27.2312 126.325 26.2924C129.393 25.8611 132.491 25.6105 135.595 25.49C135.238 26.7206 134.936 27.9544 134.646 29.1405L134.57 29.4514C133.713 32.9465 133.029 36.7017 132.507 40.8058C131.338 40.7234 130.17 40.6219 129.005 40.5014C126.092 40.1652 123.154 39.7719 120.302 39.071C120.413 37.2663 120.611 35.5726 120.897 33.9678C121.852 32.2361 122.912 30.5868 124.071 29.0391L124.068 29.0359ZM120.213 39.0488C119.691 38.9187 119.175 38.7792 118.659 38.6269C119.286 37.1077 119.987 35.6297 120.763 34.2088C120.502 35.7344 120.321 37.3456 120.213 39.0519V39.0488ZM120.206 39.128C120.146 40.1461 120.108 41.1991 120.098 42.2933C120.098 42.5122 120.104 42.7279 120.111 42.9467C119.016 43.1465 117.952 43.3685 116.927 43.6127C117.408 41.935 117.975 40.292 118.63 38.6935C119.146 38.8489 119.671 38.9917 120.206 39.128V39.128ZM122.629 59.2394C122.648 59.2394 122.664 59.2458 122.683 59.2489C122.912 59.9911 123.157 60.7301 123.415 61.4627C122.151 61.707 120.894 61.9861 119.643 62.3096C118.436 62.6363 117.249 63.0359 116.109 63.5497C116.03 63.5878 115.95 63.6258 115.867 63.6639C115.492 61.7355 115.256 59.6961 115.173 57.5458C117.609 58.2974 120.117 58.8303 122.629 59.2363V59.2394ZM116.132 63.6004C117.268 63.0835 118.452 62.6838 119.656 62.354C120.903 62.0273 122.164 61.7482 123.428 61.5008C123.501 61.7038 123.571 61.9068 123.644 62.1098C125.535 67.2605 127.932 71.5961 130.785 75.0405C127.493 74.7424 124.198 74.254 121.212 73.5118C120.06 72.5159 118.965 71.4471 117.937 70.3053C117.029 68.2881 116.345 66.087 115.877 63.721C115.963 63.6797 116.049 63.6385 116.132 63.6004ZM130.886 75.1611C131.163 75.4941 131.447 75.8176 131.733 76.1348C131.284 76.2267 130.845 76.3282 130.418 76.4424L130.259 76.4836C129.374 76.7152 128.069 77.0609 127.191 77.6984C125.121 76.5503 123.173 75.1928 121.365 73.6482C124.341 74.3808 127.62 74.8661 130.886 75.1642V75.1611ZM132.723 77.0545C132.443 76.7723 132.169 76.4836 131.899 76.1855C132.207 76.1252 132.529 76.0682 132.854 76.0142C132.956 76.5122 133.067 77.0165 133.201 77.5113C133.042 77.359 132.882 77.2099 132.726 77.0514L132.723 77.0545ZM131.832 76.1126C131.555 75.8081 131.281 75.4941 131.011 75.1706C131.58 75.2213 132.147 75.2657 132.717 75.307C132.755 75.5131 132.796 75.7224 132.838 75.9318C132.497 75.9857 132.16 76.046 131.835 76.1126H131.832ZM132.803 75.3133C134.207 75.4116 135.595 75.4751 136.947 75.5099C136.814 75.5163 136.677 75.5258 136.546 75.5322C135.213 75.6146 134.025 75.7415 132.921 75.9159C132.879 75.7129 132.841 75.5131 132.803 75.3101V75.3133ZM144.279 75.4211C144.925 75.3863 145.571 75.3419 146.217 75.2911C146.179 75.4973 146.138 75.7034 146.096 75.9127C144.922 75.7002 143.744 75.5702 142.595 75.4973C143.174 75.4782 143.738 75.4529 144.279 75.4243V75.4211ZM146.307 75.2816C146.886 75.234 147.468 75.1833 148.048 75.1262C147.761 75.4687 147.468 75.8017 147.172 76.1284C146.844 76.0523 146.513 75.9857 146.182 75.9254C146.227 75.7098 146.268 75.4941 146.307 75.2816ZM147.106 76.2045C146.838 76.4932 146.571 76.7786 146.297 77.0545C146.138 77.2131 145.979 77.3654 145.816 77.5176C145.95 77.0165 146.061 76.5122 146.166 76.0079C146.482 76.065 146.794 76.1316 147.106 76.2045V76.2045ZM150.98 77.4383C150.633 77.2544 150.26 77.0863 149.84 76.9277C149.006 76.6105 148.143 76.3536 147.271 76.1506C147.577 75.8144 147.879 75.4687 148.172 75.1135C149.363 74.993 150.55 74.8502 151.734 74.6822C153.736 74.3808 155.755 74.0542 157.732 73.5753C155.831 75.2086 153.775 76.6327 151.591 77.8252C151.416 77.6952 151.212 77.5652 150.98 77.4383V77.4383ZM151.718 74.5838C150.572 74.7456 149.423 74.882 148.274 74.9961C151.11 71.5581 153.495 67.2383 155.376 62.1098C155.452 61.9036 155.522 61.6943 155.596 61.4881C156.605 61.7101 157.607 61.9607 158.604 62.2461C160.129 62.706 161.66 63.2167 163.105 63.8954C162.64 66.198 161.965 68.3389 161.08 70.3053C160.074 71.4217 159.005 72.4683 157.881 73.4452C155.853 73.9432 153.778 74.273 151.718 74.5838V74.5838ZM158.62 62.2017C157.623 61.9163 156.621 61.6689 155.611 61.4501C155.872 60.7079 156.121 59.9594 156.353 59.2077C158.893 58.7859 161.408 58.2372 163.85 57.4506C163.77 59.6993 163.522 61.8307 163.118 63.8415C161.676 63.1659 160.141 62.6616 158.623 62.2017H158.62ZM158.909 43.0641C158.916 42.8072 158.922 42.5502 158.922 42.2933C158.913 41.1738 158.874 40.1017 158.811 39.0614C159.119 38.9885 159.428 38.9187 159.737 38.8394C159.934 38.7855 160.148 38.7252 160.371 38.6555C161.061 40.3396 161.66 42.0745 162.156 43.8443C161.084 43.5493 159.998 43.2892 158.909 43.0641V43.0641ZM159.705 38.7633C159.406 38.8363 159.104 38.9029 158.804 38.9695C158.696 37.2948 158.518 35.7154 158.26 34.2152C159.024 35.6234 159.721 37.0823 160.339 38.5825C160.116 38.6491 159.903 38.7094 159.705 38.7633ZM159.307 27.5833C158.263 27.2883 157.209 27.0282 156.149 26.803C155.382 24.9889 154.475 23.403 153.428 22.0519C153.504 21.979 153.574 21.9029 153.638 21.8236C155.723 22.8861 157.7 24.1547 159.521 25.6295C160.746 26.6191 161.895 27.6911 162.968 28.8266C161.774 28.3413 160.539 27.9448 159.307 27.5801V27.5833ZM153.374 21.9853C153.246 21.8236 153.119 21.6618 152.988 21.5064C153.179 21.5984 153.37 21.6904 153.558 21.7855C153.504 21.8521 153.44 21.9187 153.374 21.9853V21.9853ZM150.782 19.4639C151.301 19.8762 151.791 20.3329 152.263 20.8277C150.162 19.9079 147.971 19.1879 145.734 18.6773C143.887 18.2586 142.006 17.9859 140.118 17.84C143.26 17.5831 146.31 17.7734 149.184 18.4077C149.738 18.7122 150.273 19.0579 150.782 19.4639V19.4639ZM139.984 17.7639C140.841 17.4657 141.7 17.2596 142.553 17.1549C144.32 17.2405 146.144 17.4372 147.93 17.821C148.271 17.9542 148.608 18.1001 148.936 18.2713C146.09 17.6719 143.085 17.5006 139.984 17.7639ZM139.656 17.8971C141.337 19.8381 142.385 22.3501 143.168 24.9286C140.783 25.1189 138.323 25.1189 135.846 24.9318C136.629 22.3532 137.676 19.8413 139.357 17.8971C139.408 17.8939 139.456 17.8876 139.507 17.8844C139.555 17.8876 139.606 17.8939 139.653 17.8971H139.656ZM138.899 17.84C137.011 17.9859 135.133 18.2586 133.283 18.6773C131.046 19.1879 128.855 19.9079 126.754 20.8277C127.226 20.3329 127.716 19.8762 128.235 19.4639C128.744 19.0579 129.282 18.709 129.833 18.4077C132.707 17.7766 135.754 17.5831 138.896 17.84H138.899ZM130.081 18.2682C130.415 18.0969 130.759 17.9478 131.109 17.8114C132.787 17.4943 134.62 17.2881 136.671 17.1866C137.457 17.2976 138.246 17.4911 139.033 17.7639C135.932 17.4974 132.927 17.6719 130.081 18.2682V18.2682ZM126.029 21.5064C125.818 21.757 125.615 22.0107 125.414 22.2771C125.293 22.1788 125.188 22.0741 125.096 21.9695C125.405 21.8077 125.717 21.6555 126.029 21.5064ZM125.363 22.3469C124.408 23.6377 123.571 25.1316 122.858 26.8252C122.855 26.8252 122.848 26.8252 122.845 26.8252C120.665 27.2344 118.471 27.6879 116.393 28.4682C117.367 27.4659 118.401 26.5144 119.496 25.6295C121.212 24.2372 123.068 23.0351 125.019 22.0107C125.115 22.1249 125.233 22.2359 125.366 22.3437L125.363 22.3469ZM115.081 57.5204C115.164 59.693 115.399 61.7545 115.781 63.7019C115.177 63.9937 114.479 64.3616 113.833 64.8088C112.031 61.8687 110.669 58.7002 109.771 55.3954C111.478 56.2581 113.257 56.9527 115.081 57.5204ZM115.791 63.759C116.24 66.0267 116.889 68.1391 117.739 70.0864C116.45 68.6338 115.266 67.0734 114.202 65.4114C114.088 65.2307 113.976 65.0435 113.865 64.8628C114.502 64.4219 115.196 64.054 115.791 63.7622V63.759ZM119.277 72.8997C118.831 72.1512 118.424 71.3678 118.051 70.559C118.99 71.5866 119.983 72.5572 121.028 73.4642C120.451 73.3183 119.888 73.1629 119.34 73.0012C119.321 72.9663 119.299 72.9346 119.28 72.9029L119.277 72.8997ZM121.177 73.5943C123.014 75.1801 125 76.5693 127.111 77.746C126.78 77.9997 126.516 78.2947 126.369 78.6499C126.239 78.967 126.216 79.2747 126.299 79.5697C125.669 79.3318 125.042 79.078 124.427 78.7989C122.505 77.3178 120.802 75.3989 119.407 73.1122C119.983 73.2835 120.572 73.4452 121.177 73.5943ZM126.449 78.6816C126.592 78.3327 126.856 78.0409 127.191 77.7904C127.69 78.0663 128.196 78.3359 128.709 78.5896C130.53 79.484 132.456 80.2008 134.458 80.7495C134.611 81.0159 134.783 81.2697 134.961 81.5107C132.036 81.2474 129.145 80.6226 126.398 79.6077C126.299 79.3127 126.315 79.0051 126.449 78.6816V78.6816ZM135.512 82.0467C135.407 81.9357 135.308 81.8183 135.213 81.6978C136.416 81.7708 137.622 81.7898 138.826 81.7517C137.782 81.9991 136.734 82.1577 135.696 82.2275C135.636 82.1704 135.572 82.1101 135.512 82.0467V82.0467ZM139.227 81.7486C138.756 82.2592 138.256 82.6017 137.759 82.754C137.288 82.735 136.814 82.7001 136.336 82.6652C136.152 82.5764 135.97 82.459 135.795 82.31C136.935 82.2307 138.084 82.0435 139.227 81.7486V81.7486ZM140.179 81.7517C141.382 81.7898 142.588 81.7708 143.792 81.6978C143.696 81.8183 143.597 81.9357 143.492 82.0467C143.432 82.1101 143.371 82.1704 143.308 82.2275C142.27 82.1577 141.223 81.9991 140.175 81.7517H140.179ZM143.212 82.31C143.028 82.4654 142.84 82.5891 142.646 82.6747C142.187 82.7096 141.726 82.7381 141.258 82.7572C140.755 82.6049 140.255 82.2624 139.781 81.7454C140.923 82.0404 142.076 82.2275 143.212 82.3068V82.31ZM152.371 79.1732C152.431 78.726 152.193 78.2947 151.658 77.876C153.883 76.6581 155.974 75.1991 157.9 73.5277C158.483 73.3849 159.059 73.2232 159.632 73.0488C158.231 75.3672 156.512 77.3083 154.57 78.8021C153.759 79.17 152.934 79.4967 152.094 79.7917C152.243 79.595 152.342 79.3857 152.371 79.17V79.1732ZM158.053 73.3976C159.069 72.5064 160.036 71.5613 160.953 70.5558C160.577 71.3646 160.173 72.148 159.728 72.8965C159.721 72.9092 159.712 72.9219 159.702 72.9346C159.158 73.1027 158.607 73.2549 158.05 73.3945L158.053 73.3976ZM164.802 65.4083C163.739 67.0702 162.551 68.6307 161.265 70.0833C162.096 68.1835 162.733 66.1282 163.181 63.9271C163.401 64.0318 163.614 64.1396 163.828 64.2506H163.821C164.226 64.4663 164.649 64.72 165.047 65.0086C164.964 65.1419 164.885 65.2751 164.802 65.4051V65.4083ZM163.856 64.203C163.637 64.092 163.414 63.981 163.191 63.8764C163.598 61.8465 163.847 59.693 163.93 57.4189C165.171 57.0161 166.393 56.5562 167.59 56.017C168.141 55.7601 168.727 55.481 169.3 55.1702C168.389 58.6114 166.973 61.9068 165.085 64.9547C164.687 64.6693 164.267 64.4187 163.863 64.203H163.856ZM167.256 55.2495C166.174 55.6904 165.069 56.0678 163.952 56.4008C163.952 56.3469 163.952 56.2961 163.955 56.2422C163.955 52.6551 163.525 49.0585 162.685 45.5506C162.554 45.0083 162.411 44.4659 162.261 43.9299C164.557 44.5738 166.801 45.392 168.946 46.4482L168.985 46.3721C166.82 45.3223 164.56 44.5103 162.246 43.8697C161.746 42.0808 161.144 40.3301 160.447 38.6301C162.72 37.9419 166.123 36.6066 167.425 34.7004C168.288 36.1308 169.042 37.6215 169.682 39.1534C170.194 41.418 170.471 43.8252 170.5 46.3499C170.497 46.6448 170.484 46.9366 170.474 47.2284C169.981 46.9049 169.469 46.6226 168.991 46.3784L168.95 46.4514C169.472 46.7749 169.987 47.1142 170.468 47.4917C170.366 49.7594 170.054 51.9986 169.542 54.187C168.778 54.6088 167.972 54.9514 167.259 55.2527L167.256 55.2495ZM170.545 47.5551C170.624 47.6185 170.704 47.6788 170.783 47.7454C171.309 48.1767 171.792 48.6969 172.101 49.2773C172.158 50.0892 172.178 50.9075 172.168 51.7258C171.691 52.7534 170.713 53.521 169.634 54.1299C170.134 51.9795 170.439 49.7816 170.545 47.5551V47.5551ZM172.037 48.551C171.624 48.0721 171.105 47.6502 170.554 47.2823C170.567 46.9715 170.58 46.6607 170.583 46.3499C170.557 43.9838 170.312 41.7224 169.86 39.5816C171.009 42.4488 171.751 45.465 172.037 48.551V48.551ZM168.641 35.6044C168.724 35.8264 168.794 36.0547 168.87 36.2799C168.504 35.5853 168.109 34.9002 167.695 34.231C167.734 34.1517 167.765 34.0724 167.797 33.99C167.826 33.8948 167.845 33.806 167.861 33.7141C168.141 34.3325 168.402 34.9637 168.641 35.6044V35.6044ZM167.832 33.4349C167.412 32.531 166.944 31.6588 166.435 30.812C167.278 31.5034 167.925 32.3756 167.832 33.4349ZM157.541 21.795C161.023 23.9708 163.977 26.9807 166.167 30.5266C165.693 30.1777 165.181 29.8764 164.719 29.6258C164.464 29.4958 164.206 29.3721 163.949 29.2516C162.405 27.5452 160.689 25.9784 158.804 24.5924C157.235 23.4316 155.56 22.4198 153.816 21.5508C153.892 21.4144 153.943 21.278 153.966 21.1353C154.052 20.5835 153.692 20.0379 152.912 19.5146C154.532 20.1236 156.083 20.8816 157.541 21.795V21.795ZM151.171 18.7566C151.438 18.8581 151.686 18.9659 151.925 19.0738C151.04 18.782 150.136 18.5282 149.216 18.3221C148.955 18.1794 148.691 18.043 148.42 17.9224C149.356 18.1413 150.276 18.4141 151.174 18.7534L151.171 18.7566ZM147.37 17.6148C145.963 17.3452 144.543 17.1835 143.149 17.0947C144.597 16.9932 146.023 17.1676 147.37 17.6148ZM137.161 17.1581C138.1 17.12 139.099 17.0915 140.14 17.0915C140.777 17.0947 141.433 17.1073 142.095 17.1327C141.277 17.2659 140.452 17.4784 139.634 17.7861L139.641 17.7988C139.641 17.7988 139.631 17.7988 139.628 17.7988V17.7797C139.586 17.7797 139.545 17.7861 139.507 17.7892C139.465 17.7892 139.427 17.7829 139.386 17.7797V17.7988C139.386 17.7988 139.376 17.7988 139.37 17.7988L139.376 17.7861C138.625 17.5038 137.867 17.2945 137.113 17.1613C137.129 17.1613 137.145 17.1613 137.164 17.1613L137.161 17.1581ZM136.161 17.1232C134.509 17.2215 133 17.3896 131.599 17.6307C133.051 17.1454 134.595 16.971 136.161 17.1232ZM129.896 18.0588L129.995 18.0366C130.212 17.9859 130.431 17.9415 130.654 17.8971C130.364 18.0239 130.078 18.1698 129.794 18.3252C128.448 18.6234 127.143 19.0198 125.876 19.5051C127.012 18.7154 128.642 18.3443 129.893 18.0588H129.896ZM121.464 21.795C122.712 21.0148 124.023 20.3456 125.389 19.7874C125.293 19.8762 125.201 19.9682 125.118 20.0633C124.679 20.5708 124.548 21.0655 124.727 21.5381C124.752 21.6047 124.784 21.6713 124.822 21.7348C123.208 22.5626 121.661 23.5141 120.203 24.5924C118.462 25.8769 116.857 27.3105 115.406 28.8678C115.256 28.9344 115.103 28.9947 114.957 29.0644C114.696 29.1786 114.355 29.3689 114.094 29.5021C113.76 29.6988 113.426 29.9017 113.098 30.1206C115.263 26.7523 118.118 23.8883 121.464 21.795V21.795ZM110.965 33.4001C110.838 32.0838 111.777 31.126 112.827 30.3775C112.159 31.4463 111.563 32.5691 111.041 33.7299C111.01 33.6221 110.981 33.5142 110.965 33.4001V33.4001ZM110.363 35.6044C110.57 35.043 110.799 34.4911 111.041 33.9456C111.092 34.0883 111.156 34.2247 111.232 34.3611C110.844 34.9954 110.475 35.6392 110.128 36.2958C110.207 36.0642 110.281 35.8295 110.363 35.6012V35.6044ZM108.422 46.3499C108.422 46.5275 108.434 46.7083 108.437 46.8859C108.004 47.165 107.6 47.46 107.231 47.7644C107.161 47.8279 107.094 47.8913 107.027 47.9516C107.349 45.0812 108.068 42.2711 109.141 39.5943C108.692 41.7288 108.447 43.987 108.422 46.3467V46.3499ZM107.346 56.9368C107.123 55.7538 106.979 54.5676 106.9 53.3814C107.645 54.168 108.587 54.7769 109.532 55.2749C109.58 55.3003 109.628 55.3224 109.673 55.3446C110.57 58.6844 111.945 61.8846 113.763 64.8532C112.595 65.6747 111.627 66.7467 111.783 68.0661C109.587 64.7517 108.065 60.9902 107.346 56.9368V56.9368ZM121.32 77.1529C118.401 75.3958 115.851 73.2073 113.741 70.6827C114.097 70.9238 114.47 71.1363 114.836 71.3297C116.151 72.0053 117.653 72.5794 119.28 73.071C120.614 75.2848 122.237 77.156 124.068 78.6277C123.129 78.1868 122.212 77.6984 121.324 77.1529H121.32ZM125.643 79.6553C125.92 79.7631 126.197 79.8678 126.481 79.9661C126.557 80.0835 126.656 80.204 126.789 80.3308C126.401 80.1215 126.019 79.8963 125.647 79.6553H125.643ZM134.137 82.4558H134.111C133.656 82.3988 133.229 82.3417 132.822 82.2782C133.382 82.3353 133.949 82.367 134.522 82.367V82.3575C134.901 82.3575 135.283 82.3448 135.668 82.3195C135.817 82.4527 135.97 82.5637 136.126 82.6525C135.464 82.5986 134.802 82.5351 134.137 82.4527V82.4558ZM137.177 82.8523C136.998 82.8555 136.82 82.8301 136.648 82.7825C136.919 82.8016 137.189 82.8142 137.457 82.8269C137.361 82.8428 137.269 82.8523 137.173 82.8523H137.177ZM138.001 82.7603C138.466 82.5669 138.928 82.2211 139.364 81.7295C139.411 81.7295 139.456 81.7264 139.504 81.7232C139.548 81.7232 139.596 81.7264 139.641 81.7295C140.083 82.2275 140.551 82.5764 141.025 82.7667C140.032 82.8016 139.023 82.7952 138.001 82.7603ZM141.828 82.8523C141.742 82.8523 141.659 82.8428 141.573 82.8301C141.834 82.8174 142.095 82.7984 142.353 82.7825C142.181 82.8301 142.006 82.8555 141.828 82.8523ZM142.862 82.662C143.024 82.57 143.18 82.459 143.333 82.3195C143.718 82.3448 144.104 82.3575 144.482 82.3575V82.367C144.833 82.367 145.18 82.3544 145.527 82.3322C144.658 82.4717 143.769 82.5859 142.859 82.6588L142.862 82.662ZM148.337 81.8247C149.343 81.5202 150.757 80.9779 151.62 80.2738C151.76 80.2294 151.9 80.185 152.04 80.1405C152.485 79.9915 152.922 79.8266 153.358 79.6585C151.791 80.667 150.107 81.3997 148.337 81.8247V81.8247ZM157.687 77.1529C156.796 77.6984 155.876 78.1868 154.933 78.6308C156.783 77.1465 158.419 75.253 159.763 73.0107C160.727 72.7094 161.679 72.3637 162.605 71.9482C163.786 71.3805 165.031 70.7779 165.957 69.8327C163.719 72.7189 160.931 75.2023 157.687 77.1529V77.1529ZM171.662 56.9368C170.885 61.3105 169.172 65.3448 166.686 68.8432C167.457 67.2669 166.451 65.957 165.146 65.0055C167.052 61.9258 168.482 58.5956 169.395 55.1163C170.443 54.5359 171.445 53.8349 172.133 52.893C172.066 54.2377 171.913 55.5889 171.662 56.94V56.9368Z" fill="black"/>
<path d="M54.8459 81.8943C57.6694 81.8943 59.9583 79.6138 59.9583 76.8007C59.9583 73.9875 57.6694 71.707 54.8459 71.707C52.0223 71.707 49.7334 73.9875 49.7334 76.8007C49.7334 79.6138 52.0223 81.8943 54.8459 81.8943Z" fill="#4A38F4"/>
<path d="M123.813 3.08594H121.97L122.982 7.45646L123.813 3.08594Z" fill="black"/>
<path d="M140.691 3.08594H138.559V5.87064L139.119 5.10627L140.691 3.08594Z" fill="black"/>
<path d="M120.894 3.08594H119.044L119.878 7.45012L120.894 3.08594Z" fill="black"/>
<path d="M165.639 7.72261C165.9 7.3991 166.037 6.93604 166.04 6.33343V6.00992C166.04 5.38511 165.91 4.91253 165.652 4.58902C165.391 4.26552 165.012 4.10693 164.512 4.10693H163.885V8.20787H164.5C164.996 8.20787 165.375 8.04611 165.639 7.72261V7.72261Z" fill="black"/>
<path d="M175.425 5.95308C175.743 5.95308 175.991 5.87378 176.166 5.71203C176.342 5.55028 176.427 5.32826 176.427 5.04281C176.427 4.75737 176.345 4.52584 176.179 4.35774C176.014 4.19281 175.762 4.11035 175.418 4.11035H174.396V5.95308H175.425V5.95308Z" fill="black"/>
<path d="M134.051 5.956C134.369 5.956 134.617 5.87671 134.792 5.71496C134.967 5.55321 135.053 5.33119 135.053 5.04574C135.053 4.7603 134.971 4.52877 134.805 4.36067C134.64 4.19574 134.388 4.11328 134.044 4.11328H133.022V5.956H134.051V5.956Z" fill="black"/>
<path d="M159.915 6.93616L159.142 4.63672L158.375 6.93616H159.915Z" fill="black"/>
<path d="M127.222 4.54165C126.99 4.8715 126.872 5.35676 126.872 5.99426V6.2924C126.872 6.92038 126.987 7.40564 127.219 7.75135C127.451 8.09706 127.783 8.2715 128.219 8.2715C128.655 8.2715 128.973 8.1034 129.202 7.77038C129.431 7.43736 129.546 6.9521 129.549 6.31143V6.01329H129.546C129.546 5.37262 129.431 4.88419 129.199 4.54799C128.967 4.2118 128.636 4.04688 128.209 4.04688C127.783 4.04688 127.455 4.2118 127.222 4.54165V4.54165Z" fill="black"/>
<path d="M18.0781 88.0003H44.7418L26.4758 39.9404L18.0781 88.0003Z" fill="black"/>
<path d="M91.9735 16.9551H76.3782L64.9214 82.9094H107.432L109.568 70.6795H82.6081L91.9735 16.9551Z" fill="black"/>
<path d="M175.476 3C176.176 3.00951 176.72 3.1681 177.105 3.48209C177.5 3.8056 177.698 4.26231 177.698 4.85224C177.698 5.2709 177.605 5.61978 177.424 5.90205C177.242 6.18433 176.965 6.40634 176.596 6.57127L177.93 9.08321V9.14347H176.567L175.412 6.89478L174.4 6.8916V9.1403H173.129V3H172.378V4.02444H169.523V5.48974H171.961V6.48246L169.523 6.47929V8.12537H172.385V9.14347H168.253V3H164.566C165.085 3.00951 165.553 3.12687 165.967 3.36157C166.394 3.60578 166.728 3.95149 166.97 4.39869C167.208 4.8459 167.329 5.35653 167.329 5.92743V6.2097C167.329 6.7806 167.212 7.28806 166.976 7.73209C166.741 8.17612 166.406 8.52183 165.98 8.76604C165.55 9.01026 165.066 9.13396 164.528 9.13713H162.615V3H159.731L162.039 9.1403H160.689L160.262 7.87481H158.031L157.607 9.1403H156.258L158.553 3H156.025V4.02444H153.17V5.48974H155.608V6.47929H153.17V8.12537H156.032V9.14347H151.9V3H148.471V8.12537H151.171V9.14347H147.201V3H142.254L140.064 5.73078L142.318 9.14347H140.806L139.22 6.6791L138.558 7.38638V9.1403H137.288V3H134.048C134.777 3 135.337 3.16175 135.732 3.48526C136.126 3.80877 136.324 4.26549 136.324 4.85541C136.324 5.27407 136.231 5.62295 136.05 5.90522C135.868 6.1875 135.591 6.40952 135.222 6.57444L136.556 9.08638V9.14664H135.194L134.038 6.89795L133.026 6.89478V9.14347H131.756V3H128.897C129.139 3.06026 129.365 3.15541 129.572 3.28228C129.973 3.52966 130.282 3.88172 130.498 4.3416C130.718 4.80149 130.826 5.33116 130.826 5.93377V6.20653H130.832C130.832 6.81548 130.724 7.34515 130.511 7.80187C130.298 8.25858 129.989 8.61063 129.591 8.85802C129.19 9.10541 128.735 9.2291 128.216 9.2291C127.697 9.2291 127.248 9.10541 126.847 8.86119C126.446 8.61698 126.137 8.2681 125.914 7.81138C125.694 7.35784 125.583 6.83451 125.58 6.24459V5.94011C125.58 5.33433 125.688 4.80149 125.908 4.3416C126.127 3.88172 126.436 3.52966 126.834 3.28228C127.041 3.15224 127.264 3.06026 127.503 3H125.08L123.711 9.14347H122.432L121.429 5.03302L120.426 9.14347H119.146L117.777 3H117.395V4.02444H115.505V9.14347H114.234V4.02444H112.372V3H111.917V4.02444H109.061V5.48974H111.5V6.47929H109.061V8.12537H111.923V9.14347H107.791V3H106.68V9.14347H105.41L102.937 5.1028V9.14347H101.667V3H0V88L13.2523 11.7759H30.8212L49.0936 59.9215L57.4626 11.7759H178V3H175.476Z" fill="black"/>
<path d="M105.413 3.08594H102.937L105.413 7.13612V3.08594Z" fill="black"/>
<rect width="178" height="3" fill="black"/>
</svg>
