<svg width="211" height="101" viewBox="0 0 211 101" fill="none" xmlns="http://www.w3.org/2000/svg">
<g clip-path="url(#clip0_18_3143)">
<path d="M68.0931 10.5295L58.199 67.636L36.6107 10.5295H15.679L0 101H21.4298L31.3843 43.8935L53.0368 101H211V10.5295H68.0931ZM127.349 94.9512H76.9571L90.538 16.582H109.024L97.9228 80.4193H129.881L127.349 94.9512Z" fill="white"/>
<path d="M200.325 51.5588C202.706 52.7761 205.826 54.7923 204.792 57.9203C203.834 60.5546 201 61.9151 198.664 63.0118C192.053 66.0003 184.781 67.0254 177.642 67.8281C175.899 68.0015 174.004 68.1484 172.261 68.2464C163.28 68.7627 154.242 68.2803 145.363 66.837C140.02 65.9664 134.68 64.6285 129.847 62.1299C128.631 61.4892 127.413 60.694 126.499 59.6351C124.647 57.4304 124.964 55.075 127.118 53.2057C136.865 45.0767 166.921 44.9448 179.619 46.2601C186.702 47.0515 193.876 48.412 200.321 51.5513L200.275 51.6417C193.853 48.4647 186.691 47.1005 179.615 46.3166C166.638 44.9561 137.612 45.1898 127.598 53.7258C125.458 55.6704 125.665 57.8638 127.847 59.7067C129.979 61.4025 132.65 62.3146 135.209 63.2002C140.284 64.8132 145.578 65.5405 150.873 66.1209C156.174 66.6636 161.518 66.9312 166.85 66.8483C172.178 66.7993 177.517 66.3998 182.804 65.7327C188.064 65.0468 193.344 64.1122 198.272 62.0998C200.472 61.1727 203.423 59.8989 204.245 57.5548C204.875 55.8174 203.77 54.2685 202.453 53.1831C201.781 52.6103 201.034 52.1166 200.275 51.6455L200.328 51.555L200.325 51.5588Z" fill="black"/>
<path d="M194.242 72.7387C196.491 73.9446 199.159 76.0589 197.283 78.7911C196.166 80.2986 194.408 81.1465 192.759 81.9417C188.691 83.7695 184.249 84.5233 179.868 85.1865C176.936 85.6049 173.985 85.8988 171.027 86.0646C161.042 86.6186 145.009 85.7707 136.133 81.2068C134.684 80.4418 133.152 79.4243 132.609 77.8C131.797 74.932 135.484 72.9686 137.635 71.9586C138.986 71.348 140.394 70.8732 141.824 70.485C150.439 68.2427 159.389 67.7075 168.261 67.813C174.914 67.8997 181.612 68.5178 188.027 70.3569C190.144 70.9975 192.279 71.7098 194.242 72.7424V72.7387ZM194.208 72.799C192.253 71.7663 190.121 71.0503 188.008 70.4096C181.6 68.5592 174.906 67.9336 168.257 67.8319C159.393 67.715 150.442 68.2916 141.839 70.5378C140.412 70.9297 139.009 71.4046 137.662 72.0189C135.545 73.0213 131.892 74.9659 132.688 77.7736C133.231 79.3753 134.745 80.3702 136.175 81.1239C145.092 85.6765 160.986 86.449 171.016 85.929C173.97 85.7669 176.917 85.4843 179.846 85.0697C184.219 84.414 188.653 83.6715 192.713 81.855C194.351 81.0712 196.098 80.2345 197.208 78.7421C199.053 76.0815 196.408 73.9823 194.2 72.799H194.208Z" fill="black"/>
<path d="M165.454 94.9362C163.348 94.9362 161.186 94.8043 159.001 94.5329H158.971C152.518 93.7377 150.473 92.3886 149.892 91.4012C149.62 90.9376 149.59 90.4326 149.805 89.905C150.435 88.3674 152.922 87.7154 154.409 87.3235L154.597 87.2745C156.71 86.7167 159.02 86.3738 161.861 86.2004C166.091 85.9404 172.325 85.8311 177.619 87.8549C178.118 88.0433 178.559 88.243 178.97 88.4616C180.17 89.1136 180.725 89.807 180.627 90.5269C180.382 92.2981 176.318 93.6096 174.914 93.93C171.989 94.597 168.789 94.9324 165.45 94.9324L165.454 94.9362ZM166.035 86.1628C164.522 86.1628 163.11 86.2268 161.869 86.3022C159.031 86.4755 156.729 86.8147 154.624 87.3725L154.435 87.4215C152.967 87.8059 150.507 88.4541 149.899 89.9427C149.695 90.4402 149.722 90.9113 149.978 91.3484C150.548 92.317 152.571 93.6398 158.982 94.4274H159.012C164.646 95.1246 170.137 94.9173 174.895 93.832C176.638 93.4363 180.31 92.1022 180.529 90.5155C180.623 89.841 180.084 89.1814 178.925 88.5558C178.518 88.3373 178.08 88.1413 177.586 87.9529C173.861 86.5283 169.665 86.1628 166.035 86.1628Z" fill="black"/>
<path d="M165.374 26.3391C162.661 26.3391 159.903 26.1431 157.156 25.7512C156.737 25.6909 154.533 25.3592 152.329 24.7035C149.737 23.9309 148.231 23.034 147.858 22.0428C147.646 21.4813 147.801 20.8934 148.322 20.2904C149.601 18.8018 152.125 18.2289 153.963 17.8068L154.08 17.7805C156.578 17.2114 159.363 16.8684 162.593 16.7365C167.472 16.5368 173.77 16.5707 179.242 18.6397C179.759 18.8357 180.223 19.043 180.661 19.2691C182.016 20.004 182.638 20.7765 182.517 21.5642C182.197 23.6445 176.74 25.1293 175.295 25.412C172.14 26.0301 168.793 26.3429 165.371 26.3429L165.374 26.3391ZM166.129 16.7592C164.895 16.7592 163.71 16.7931 162.597 16.8383C159.371 16.9702 156.593 17.3132 154.103 17.8822L153.986 17.9086C152.159 18.3269 149.658 18.896 148.397 20.3582C147.907 20.9311 147.756 21.4851 147.952 22.0089C148.869 24.4434 156.827 25.6042 157.167 25.6532C163.367 26.5388 169.631 26.4182 175.276 25.3102C177.484 24.8768 182.132 23.3882 182.415 21.5491C182.529 20.8105 181.921 20.0756 180.612 19.3633C180.178 19.1372 179.717 18.9337 179.204 18.7377C174.997 17.1473 170.295 16.7629 166.129 16.7629V16.7592Z" fill="black"/>
<path d="M195.264 31.6529C197.144 32.6704 199.687 34.3663 198.913 36.8385C197.815 39.8271 192.238 41.8019 189.351 42.5971C180.457 44.8206 171.212 45.5668 162.057 45.3331C153.805 44.9788 142.529 44.097 135.205 40.2831C133.009 39.096 130.13 36.586 132.118 33.9819C132.933 32.9154 134.111 32.1805 135.254 31.5059C135.563 31.3476 135.967 31.1215 136.277 30.9858C139.224 29.5952 142.439 28.9244 145.624 28.3252C147.126 28.0425 148.631 27.79 150.148 27.5827C155.827 26.7988 161.567 26.5953 167.295 26.6066C174.54 26.6481 181.849 27.236 188.842 29.2221C191.03 29.8741 193.234 30.6052 195.264 31.6529ZM195.234 31.7056C193.208 30.6579 191.008 29.9231 188.823 29.2711C182.204 27.3868 175.299 26.7423 168.435 26.6443C159.28 26.52 150.058 27.1267 141.152 29.3427C139.126 29.8703 137.122 30.5524 135.284 31.5662C133.639 32.5649 131.33 33.9291 131.545 36.1376C131.956 38.6663 135.152 40.2869 137.307 41.18C142.273 43.1963 147.624 43.9613 152.914 44.5718C165.035 45.8343 177.45 45.4047 189.313 42.5066C192.204 41.7152 197.732 39.763 198.834 36.8159C199.593 34.3814 197.072 32.7156 195.227 31.7056H195.234Z" fill="black"/>
<path d="M165.212 93.553L165.167 93.4588C168.193 91.9853 170.993 89.4113 173.725 85.5899C177.087 80.8866 179.721 75.1658 181.77 68.092C183.823 61.0031 184.879 53.6882 184.91 46.3431C184.921 43.0643 184.713 39.9251 184.298 37.0157C183.4 30.722 181.717 25.868 179.159 22.1709C177.483 19.7477 175.355 18.0292 173 17.1963C170.495 16.3107 167.804 16.4765 165.216 17.6787L165.17 17.5845C170.276 15.2102 175.664 16.9476 179.238 22.1106C181.804 25.8227 183.491 30.6918 184.393 37.0006C184.808 39.9175 185.015 43.0606 185.004 46.3431C184.974 53.6957 183.917 61.0258 181.861 68.1221C179.808 75.2034 177.17 80.9393 173.8 85.6502C171.057 89.4867 168.242 92.072 165.2 93.553H165.212Z" fill="black"/>
<path d="M165.17 93.5569C162.412 92.4376 159.748 90.591 157.254 88.0773C152.88 83.6642 149.284 77.6682 146.567 70.2477C143.843 62.8122 142.427 54.8905 142.363 46.7012C142.397 41.964 142.854 37.8524 143.759 34.1289C145.378 27.4584 148.137 22.5366 151.948 19.4953C155.695 16.5067 160.533 15.8133 165.219 17.5845L165.182 17.6825C160.533 15.9226 155.733 16.6122 152.012 19.5744C148.216 22.6006 145.473 27.5036 143.858 34.1516C142.956 37.8675 142.499 41.9753 142.465 46.7012C142.533 54.8792 143.944 62.7896 146.665 70.2138C149.374 77.6155 152.963 83.6039 157.329 88.0057C159.812 90.5118 162.465 92.3472 165.212 93.4627L165.174 93.5569H165.17Z" fill="black"/>
<path d="M165.201 17.5808C173.902 18.0707 182.525 21.0857 189.355 26.5502C201.683 36.3186 207.713 52.6821 203.185 67.9338C199.951 79.2059 191.272 87.9228 180.204 91.6839C175.385 93.3044 170.246 93.817 165.186 93.5607L165.189 93.4589C172.744 93.7303 180.427 92.1135 186.898 88.1338C195.694 82.8276 201.675 74.2237 203.464 64.1124C206.117 49.931 199.909 35.4593 188.695 26.6218C184.015 22.8946 178.465 20.3169 172.665 18.881C170.212 18.2893 167.714 17.8898 165.193 17.6901L165.201 17.5883V17.5808Z" fill="black"/>
<path d="M165.529 17.6824C156.903 18.3495 148.393 21.4285 141.654 26.9043C130.665 35.8059 124.635 50.059 127.254 64.1047C129.047 74.216 135.028 82.8199 143.82 88.1262C150.291 92.1059 157.974 93.7264 165.529 93.4513L165.533 93.553C160.472 93.8093 155.333 93.2968 150.514 91.6762C139.446 87.9151 130.771 79.1982 127.533 67.9262C122.862 52.1543 129.428 35.3273 142.495 25.672C147.092 22.2689 152.427 19.9135 157.997 18.6397C160.469 18.0781 162.989 17.7239 165.518 17.5769L165.525 17.6787L165.529 17.6824Z" fill="black"/>
<path d="M159.469 94.3219C157.933 94.3219 156.431 94.1523 154.993 93.8169C149.492 92.528 144.631 88.7329 141.311 83.1327C138.122 77.7548 136.465 71.0768 136.386 63.2794C136.386 59.0171 136.896 54.7434 137.892 50.5753C139.616 43.3545 142.763 36.5484 146.982 30.8916C150.578 26.0753 156.65 19.857 165.182 17.5845L165.208 17.6825C156.707 19.9474 150.65 26.1469 147.065 30.9481C142.85 36.5936 139.714 43.3885 137.99 50.5941C136.994 54.7547 136.488 59.0209 136.488 63.2719C136.567 71.0504 138.22 77.7134 141.397 83.0724C144.703 88.6463 149.537 92.4262 155.012 93.7076C158.205 94.4575 161.718 94.3671 165.171 93.4513L165.197 93.5493C163.284 94.0581 161.352 94.3106 159.465 94.3106L159.469 94.3219Z" fill="black"/>
<path d="M162.582 95.0003C161.857 95.0003 161.178 94.6686 160.567 94.0091C158.216 91.4917 157.521 87.2595 156.963 83.8601L156.903 83.4908C156.091 78.5652 155.706 73.1873 155.699 66.5733C155.687 62.1903 155.865 57.634 156.231 53.0401C156.884 44.8583 157.955 37.7921 159.51 31.4419L159.601 31.0726C160.733 26.4446 162.016 21.1987 165.155 17.5996L165.234 17.6674C162.114 21.2477 160.831 26.4786 159.702 31.0989L159.612 31.4683C158.057 37.8147 156.986 44.8734 156.336 53.0514C155.97 57.6454 155.793 62.1979 155.804 66.5771C155.812 73.1835 156.193 78.5539 157.004 83.4757L157.065 83.845C157.619 87.2331 158.314 91.4464 160.642 93.9413C161.246 94.5857 161.91 94.9136 162.616 94.8985C163.468 94.8872 164.344 94.3935 165.151 93.474L165.231 93.5418C164.404 94.484 163.502 94.989 162.619 95.0003C162.608 95.0003 162.597 95.0003 162.582 95.0003Z" fill="black"/>
<path d="M168.672 94.9964C167.276 94.9964 166.023 94.2502 165.159 93.5492L165.223 93.4701C166.261 94.3105 167.865 95.2225 169.597 94.7778C173.272 93.8394 174.906 88.5068 175.604 86.2343C176.638 82.8651 178.016 77.148 178.038 66.4752C178.072 62.0206 177.819 57.3287 177.283 52.5274C176.37 44.2853 174.85 37.1475 172.638 30.7031C171.038 26.0413 169.008 20.8104 165.167 17.6748L165.231 17.5957C169.095 20.7463 171.133 25.996 172.736 30.6692C174.951 37.1211 176.472 44.2665 177.389 52.5161C177.921 57.3211 178.174 62.0169 178.144 66.4752C178.121 77.1631 176.74 82.8877 175.706 86.2644C175.004 88.5557 173.355 93.9261 169.623 94.8795C169.303 94.9625 168.982 95.0001 168.672 95.0001V94.9964Z" fill="black"/>
<path d="M170.854 94.1749C169.016 94.1749 167.122 93.9713 165.178 93.5606L165.201 93.4588C168.952 94.2502 172.529 94.2766 175.842 93.5304C181.661 92.2227 186.861 88.5294 190.48 83.1327C194.208 77.5777 196.147 70.6132 196.242 62.4315C196.2 57.7696 195.566 53.2322 194.366 48.951C192.2 41.2328 188.325 34.1891 183.163 28.5776C177.959 22.9284 171.744 19.156 165.19 17.6787L165.212 17.5769C171.789 19.0618 178.023 22.8417 183.238 28.506C188.412 34.1288 192.295 41.1875 194.468 48.9208C195.672 53.2096 196.306 57.7546 196.347 62.4277C196.253 70.6283 194.31 77.6116 190.57 83.1854C186.933 88.6048 181.714 92.3094 175.869 93.6246C174.257 93.9864 172.586 94.1673 170.857 94.1673L170.854 94.1749Z" fill="black"/>
<path d="M165.182 93.5606C160.68 92.9877 156.443 91.7328 152.578 89.8334C145.597 86.3963 139.624 80.9996 135.303 74.2274C130.979 67.4551 128.639 59.605 128.53 51.525C128.583 46.8858 129.326 42.5782 130.737 38.7228C133.25 31.8677 137.937 26.0225 143.937 22.2614C150.012 18.4512 157.363 16.8345 165.197 17.5844L165.186 17.6862C157.375 16.94 150.046 18.5492 143.99 22.348C138.009 26.0978 133.337 31.9242 130.832 38.7568C129.42 42.6008 128.681 46.8971 128.628 51.525C128.734 59.5824 131.069 67.4136 135.382 74.1708C139.696 80.928 145.654 86.3134 152.616 89.7391C156.469 91.6348 160.699 92.886 165.186 93.4588L165.174 93.5606H165.182Z" fill="black"/>
<path d="M165.272 93.5606L165.261 93.4588C169.751 92.8897 173.978 91.6385 177.83 89.7391C184.793 86.3097 190.751 80.928 195.064 74.1708C199.377 67.4136 201.713 59.5824 201.819 51.5212C201.766 46.8971 201.026 42.6008 199.615 38.7568C197.109 31.9242 192.438 26.0978 186.457 22.348C180.4 18.5492 173.072 16.94 165.261 17.6862L165.25 17.5844C173.083 16.8345 180.434 18.4512 186.51 22.2614C192.509 26.0225 197.196 31.8714 199.709 38.7228C201.124 42.5782 201.868 46.8858 201.917 51.525C201.811 59.605 199.468 67.4551 195.143 74.2274C190.819 80.9996 184.845 86.3963 177.868 89.8334C174.008 91.7365 169.766 92.9915 165.265 93.5606H165.272Z" fill="black"/>
<path d="M65.0139 93.7453C68.3609 93.7453 71.0742 91.0355 71.0742 87.6928C71.0742 84.3502 68.3609 81.6404 65.0139 81.6404C61.6669 81.6404 58.9536 84.3502 58.9536 87.6928C58.9536 91.0355 61.6669 93.7453 65.0139 93.7453Z" fill="#4A38F4"/>
<path d="M126.458 7.40169H124.952L122.02 2.60043V7.40169H120.515V0.101807H122.02L124.956 4.91438V0.101807H126.458V7.40169Z" fill="white"/>
<path d="M132.171 4.23602H129.281V6.19196H132.673V7.40169H127.775V0.101807H132.665V1.31908H129.281V3.0602H132.171V4.23979V4.23602Z" fill="white"/>
<path d="M139.156 1.31908H136.918V7.40169H135.413V1.31908H133.205V0.101807H139.16V1.31908H139.156Z" fill="white"/>
<path d="M145.782 5.29502L146.767 0.101807H148.269L146.646 7.40169H145.129L143.941 2.51752L142.752 7.40169H141.235L139.612 0.101807H141.114L142.103 5.28748L143.307 0.101807H144.582L145.782 5.29502Z" fill="white"/>
<path d="M155.088 3.91563C155.088 4.63545 154.959 5.26481 154.707 5.8075C154.454 6.35019 154.088 6.76851 153.616 7.06246C153.144 7.35642 152.601 7.5034 151.986 7.5034C151.371 7.5034 150.839 7.35642 150.363 7.06623C149.888 6.77604 149.522 6.36149 149.258 5.81881C148.997 5.27989 148.865 4.65806 148.861 3.95709V3.5953C148.861 2.87548 148.99 2.24235 149.25 1.6959C149.51 1.14944 149.876 0.731119 150.348 0.437164C150.82 0.143209 151.363 0 151.971 0C152.578 0 153.122 0.146978 153.593 0.437164C154.069 0.731119 154.435 1.14944 154.691 1.6959C154.952 2.24235 155.08 2.87172 155.08 3.58776V3.91187L155.088 3.91563ZM153.563 3.58399C153.563 2.81896 153.427 2.23858 153.152 1.8391C152.876 1.43963 152.484 1.24366 151.978 1.24366C151.473 1.24366 151.084 1.43963 150.808 1.83157C150.533 2.22351 150.393 2.80011 150.393 3.55761V3.91187C150.393 4.65806 150.529 5.23466 150.805 5.64545C151.08 6.05623 151.473 6.26351 151.99 6.26351C152.507 6.26351 152.884 6.06377 153.156 5.66806C153.427 5.27235 153.563 4.69575 153.567 3.93448V3.58022L153.563 3.58399Z" fill="white"/>
<path d="M158.888 4.72972H157.688V7.40169H156.182V0.101807H158.899C159.763 0.101807 160.427 0.294008 160.895 0.678411C161.363 1.06281 161.597 1.6055 161.597 2.30647C161.597 2.80393 161.488 3.21849 161.273 3.5539C161.058 3.88931 160.729 4.15311 160.291 4.34908L161.873 7.33386V7.40546H160.258L158.888 4.73349V4.72972ZM157.688 3.51244H158.903C159.28 3.51244 159.575 3.41822 159.782 3.22602C159.99 3.03382 160.091 2.77002 160.091 2.43084C160.091 2.09166 159.993 1.81655 159.797 1.61681C159.601 1.42084 159.303 1.32285 158.895 1.32285H157.684V3.51244H157.688Z" fill="white"/>
<path d="M165.031 4.47345L164.246 5.31386V7.39793H162.74V0.101807H164.246V3.41069L164.91 2.50244L166.774 0.101807H168.627L166.031 3.34662L168.702 7.40169H166.91L165.031 4.47345Z" fill="white"/>
<path d="M176.001 6.19182H179.197V7.40156H174.491V0.0979004H175.997V6.19182H176.001Z" fill="white"/>
<path d="M184.457 4.23589H181.567V6.19182H184.959V7.40156H180.061V0.0979004H184.952V1.31895H181.567V3.06006H184.457V4.23965V4.23589Z" fill="white"/>
<path d="M189.97 5.89409H187.329L186.827 7.39779H185.227L187.948 0.0979004H189.344L192.08 7.39779H190.48L189.974 5.89409H189.97ZM187.736 4.67682H189.563L188.646 1.94454L187.736 4.67682Z" fill="white"/>
<path d="M192.763 7.39779V0.0979004H195.012C195.653 0.0979004 196.231 0.241109 196.736 0.531296C197.242 0.821482 197.638 1.23227 197.925 1.76365C198.208 2.29503 198.351 2.90178 198.351 3.58014V3.91555C198.351 4.59391 198.212 5.19689 197.932 5.7245C197.653 6.25212 197.257 6.6629 196.751 6.95309C196.242 7.24327 195.668 7.39025 195.031 7.39402H192.766L192.763 7.39779ZM194.268 1.31518V6.18805H194.997C195.585 6.18805 196.034 5.99585 196.348 5.61145C196.657 5.22704 196.819 4.67682 196.823 3.96077V3.57637C196.823 2.83395 196.668 2.27242 196.363 1.88801C196.053 1.50361 195.604 1.31518 195.012 1.31518H194.268Z" fill="white"/>
<path d="M203.841 4.23589H200.951V6.19182H204.343V7.40156H199.445V0.0979004H204.336V1.31895H200.951V3.06006H203.841V4.23965V4.23589Z" fill="white"/>
<path d="M207.932 4.72581H206.732V7.39779H205.227V0.0979004H207.943C208.808 0.0979004 209.472 0.290102 209.94 0.674505C210.408 1.05891 210.642 1.60159 210.642 2.30256C210.642 2.80003 210.532 3.21458 210.317 3.54999C210.102 3.8854 209.774 4.14921 209.336 4.34518L210.917 7.32995V7.40156H209.302L207.932 4.72958V4.72581ZM206.732 3.50853H207.947C208.325 3.50853 208.619 3.41432 208.827 3.22212C209.034 3.02992 209.136 2.76611 209.136 2.42693C209.136 2.08775 209.038 1.81264 208.842 1.6129C208.645 1.41693 208.347 1.31895 207.94 1.31895H206.728V3.50853H206.732Z" fill="white"/>
</g>
<defs>
<clipPath id="clip0_18_3143">
<rect width="211" height="101" fill="white"/>
</clipPath>
</defs>
</svg>
