<?xml version="1.0" encoding="UTF-8"?><svg id="Layer_1" xmlns="http://www.w3.org/2000/svg" viewBox="0 0 559.16 268"><defs><style>.cls-1{fill:#fff;}.cls-2{fill:#4a38f4;}</style></defs><path class="cls-1" d="M180.45,27.94l-26.22,151.53L97.02,27.94H41.55L0,268H56.79l26.38-151.53,57.38,151.53h418.61V27.94H180.45Zm157.03,224.01H203.94L239.93,44h48.99l-29.42,169.39h84.69l-6.71,38.56Z"/><g><path d="M530.87,136.81c6.31,3.23,14.58,8.58,11.84,16.88-2.54,6.99-10.05,10.6-16.24,13.51-17.52,7.93-36.79,10.65-55.71,12.78-4.62,.46-9.64,.85-14.26,1.11-23.8,1.37-47.75,.09-71.28-3.74-14.16-2.31-28.31-5.86-41.12-12.49-3.22-1.7-6.45-3.81-8.87-6.62-4.91-5.85-4.07-12.1,1.64-17.06,25.83-21.57,105.48-21.92,139.13-18.43,18.77,2.1,37.78,5.71,54.86,14.04,0,0-.12,.24-.12,.24-17.02-8.43-36-12.05-54.75-14.13-34.39-3.61-111.31-2.99-137.85,19.66-5.67,5.16-5.12,10.98,.66,15.87,5.65,4.5,12.73,6.92,19.51,9.27,13.45,4.28,27.48,6.21,41.51,7.75,14.05,1.44,28.21,2.15,42.34,1.93,14.12-.13,28.27-1.19,42.28-2.96,13.94-1.82,27.93-4.3,40.99-9.64,5.83-2.46,13.65-5.84,15.83-12.06,1.67-4.61-1.26-8.72-4.75-11.6-1.78-1.52-3.76-2.83-5.77-4.08l.14-.24h0Z"/><path d="M514.75,193.01c5.96,3.2,13.03,8.81,8.06,16.06-2.96,4-7.62,6.25-11.99,8.36-10.78,4.85-22.55,6.85-34.16,8.61-7.77,1.11-15.59,1.89-23.43,2.33-26.46,1.47-68.95-.78-92.47-12.89-3.84-2.03-7.9-4.73-9.34-9.04-2.15-7.61,7.62-12.82,13.32-15.5,3.58-1.62,7.31-2.88,11.1-3.91,22.83-5.95,46.55-7.37,70.06-7.09,17.63,.23,35.38,1.87,52.38,6.75,5.61,1.7,11.27,3.59,16.47,6.33h0Zm-.09,.16c-5.18-2.74-10.83-4.64-16.43-6.34-16.98-4.91-34.72-6.57-52.34-6.84-23.49-.31-47.21,1.22-70.01,7.18-3.78,1.04-7.5,2.3-11.07,3.93-5.61,2.66-15.29,7.82-13.18,15.27,1.44,4.25,5.45,6.89,9.24,8.89,23.63,12.08,65.75,14.13,92.33,12.75,7.83-.43,15.64-1.18,23.4-2.28,11.59-1.74,23.34-3.71,34.1-8.53,4.34-2.08,8.97-4.3,11.91-8.26,4.89-7.06-2.12-12.63-7.97-15.77h0Z"/><path d="M438.46,251.91c-5.58,0-11.31-.35-17.1-1.07h-.08c-17.1-2.11-22.52-5.69-24.06-8.31-.72-1.23-.8-2.57-.23-3.97,1.67-4.08,8.26-5.81,12.2-6.85l.5-.13c5.6-1.48,11.72-2.39,19.25-2.85,11.21-.69,27.73-.98,41.76,4.39,1.32,.5,2.49,1.03,3.58,1.61h0c3.18,1.73,4.65,3.57,4.39,5.48-.65,4.7-11.42,8.18-15.14,9.03-7.75,1.77-16.23,2.66-25.08,2.66Zm1.54-23.28c-4.01,0-7.75,.17-11.04,.37-7.52,.46-13.62,1.36-19.2,2.84l-.5,.13c-3.89,1.02-10.41,2.74-12.02,6.69-.54,1.32-.47,2.57,.21,3.73,1.51,2.57,6.87,6.08,23.86,8.17h.08c14.93,1.85,29.48,1.3,42.09-1.58,4.62-1.05,14.35-4.59,14.93-8.8,.25-1.79-1.18-3.54-4.25-5.2-1.08-.58-2.24-1.1-3.55-1.6-9.87-3.78-20.99-4.75-30.61-4.75Z"/><path d="M438.25,69.89c-7.19,0-14.5-.52-21.78-1.56-1.11-.16-6.95-1.04-12.79-2.78-6.87-2.05-10.86-4.43-11.85-7.06-.56-1.49-.15-3.05,1.23-4.65,3.39-3.95,10.08-5.47,14.95-6.59l.31-.07c6.62-1.51,14-2.42,22.56-2.77,12.93-.53,29.62-.44,44.12,5.05,1.37,.52,2.6,1.07,3.76,1.67h0c3.59,1.95,5.24,4,4.92,6.09-.85,5.52-15.31,9.46-19.14,10.21-8.36,1.64-17.23,2.47-26.3,2.47Zm2-25.42c-3.27,0-6.41,.09-9.36,.21-8.55,.35-15.91,1.26-22.51,2.77l-.31,.07c-4.84,1.11-11.47,2.62-14.81,6.5-1.3,1.52-1.7,2.99-1.18,4.38,2.43,6.46,23.52,9.54,24.42,9.67,16.43,2.35,33.03,2.03,47.99-.91,5.85-1.15,18.17-5.1,18.92-9.98,.3-1.96-1.31-3.91-4.78-5.8-1.15-.6-2.37-1.14-3.73-1.66-11.15-4.22-23.61-5.24-34.65-5.24Z"/><path d="M517.46,83.99c4.98,2.7,11.72,7.2,9.67,13.76-2.91,7.93-17.69,13.17-25.34,15.28-23.57,5.9-48.07,7.88-72.33,7.26-21.87-.94-51.75-3.28-71.16-13.4-5.82-3.15-13.45-9.81-8.18-16.72,2.16-2.83,5.28-4.78,8.31-6.57,.82-.42,1.89-1.02,2.71-1.38,7.81-3.69,16.33-5.47,24.77-7.06,3.98-.75,7.97-1.42,11.99-1.97,15.05-2.08,30.26-2.62,45.44-2.59,19.2,.11,38.57,1.67,57.1,6.94,5.8,1.73,11.64,3.67,17.02,6.45h0Zm-.08,.14c-5.37-2.78-11.2-4.73-16.99-6.46-17.54-5-35.84-6.71-54.03-6.97-24.26-.33-48.7,1.28-72.3,7.16-5.37,1.4-10.68,3.21-15.55,5.9-4.36,2.65-10.48,6.27-9.91,12.13,1.09,6.71,9.56,11.01,15.27,13.38,13.16,5.35,27.34,7.38,41.36,9,32.12,3.35,65.02,2.21,96.46-5.48,7.66-2.1,22.31-7.28,25.23-15.1,2.01-6.46-4.67-10.88-9.56-13.56h0Z"/><path d="M437.82,248.24l-.12-.25c8.02-3.91,15.44-10.74,22.68-20.88,8.91-12.48,15.89-27.66,21.32-46.43,5.44-18.81,8.24-38.22,8.32-57.71,.03-8.7-.52-17.03-1.62-24.75-2.38-16.7-6.84-29.58-13.62-39.39-4.44-6.43-10.08-10.99-16.32-13.2-6.64-2.35-13.77-1.91-20.63,1.28l-.12-.25c13.53-6.3,27.81-1.69,37.28,12.01,6.8,9.85,11.27,22.77,13.66,39.51,1.1,7.74,1.65,16.08,1.62,24.79-.08,19.51-2.88,38.96-8.33,57.79-5.44,18.79-12.43,34.01-21.36,46.51-7.27,10.18-14.73,17.04-22.79,20.97Z"/><path d="M437.71,248.25c-7.31-2.97-14.37-7.87-20.98-14.54-11.59-11.71-21.12-27.62-28.32-47.31-7.22-19.73-10.97-40.75-11.14-62.48,.09-12.57,1.3-23.48,3.7-33.36,4.29-17.7,11.6-30.76,21.7-38.83,9.93-7.93,22.75-9.77,35.17-5.07l-.1,.26c-12.32-4.67-25.04-2.84-34.9,5.02-10.06,8.03-17.33,21.04-21.61,38.68-2.39,9.86-3.6,20.76-3.69,33.3,.18,21.7,3.92,42.69,11.13,62.39,7.18,19.64,16.69,35.53,28.26,47.21,6.58,6.65,13.61,11.52,20.89,14.48l-.1,.25Z"/><path d="M437.79,46.65c23.06,1.3,45.91,9.3,64.01,23.8,32.67,25.92,48.65,69.34,36.65,109.81-8.57,29.91-31.57,53.04-60.9,63.02-12.77,4.3-26.39,5.66-39.8,4.98,0,0,.01-.27,.01-.27,20.02,.72,40.38-3.57,57.53-14.13,23.31-14.08,39.16-36.91,43.9-63.74,7.03-37.63-9.42-76.03-39.14-99.48-12.4-9.89-27.11-16.73-42.48-20.54-6.5-1.57-13.12-2.63-19.8-3.16l.02-.27h0Z"/><path d="M438.66,46.92c-22.86,1.77-45.41,9.94-63.27,24.47-29.12,23.62-45.1,61.44-38.16,98.71,4.75,26.83,20.6,49.66,43.9,63.74,17.15,10.56,37.51,14.86,57.53,14.13,0,0,.01,.27,.01,.27-13.41,.68-27.03-.68-39.8-4.98-29.33-9.98-52.32-33.11-60.9-63.02-12.38-41.85,5.02-86.5,39.65-112.12,12.18-9.03,26.32-15.28,41.08-18.66,6.55-1.49,13.23-2.43,19.93-2.82l.02,.27h0Z"/><path d="M422.6,250.28c-4.07,0-8.05-.45-11.86-1.34-14.58-3.42-27.46-13.49-36.26-28.35-8.45-14.27-12.84-31.99-13.05-52.68,0-11.31,1.35-22.65,3.99-33.71,4.57-19.16,12.91-37.22,24.09-52.23,9.53-12.78,25.62-29.28,48.23-35.31l.07,.26c-22.53,6.01-38.58,22.46-48.08,35.2-11.17,14.98-19.48,33.01-24.05,52.13-2.64,11.04-3.98,22.36-3.98,33.64,.21,20.64,4.59,38.32,13.01,52.54,8.76,14.79,21.57,24.82,36.08,28.22,8.46,1.99,17.77,1.75,26.92-.68l.07,.26c-5.07,1.35-10.19,2.02-15.19,2.02Z"/><path d="M430.85,252.08c-1.92,0-3.72-.88-5.34-2.63-6.23-6.68-8.07-17.91-9.55-26.93l-.16-.98c-2.15-13.07-3.17-27.34-3.19-44.89-.03-11.63,.44-23.72,1.41-35.91,1.73-21.71,4.57-40.46,8.69-57.31l.24-.98c3-12.28,6.4-26.2,14.72-35.75l.21,.18c-8.27,9.5-11.67,23.38-14.66,35.64l-.24,.98c-4.12,16.84-6.96,35.57-8.68,57.27-.97,12.19-1.44,24.27-1.41,35.89,.02,17.53,1.03,31.78,3.18,44.84l.16,.98c1.47,8.99,3.31,20.17,9.48,26.79,1.6,1.71,3.36,2.58,5.23,2.54,2.26-.03,4.58-1.34,6.72-3.78l.21,.18c-2.19,2.5-4.58,3.84-6.92,3.87-.03,0-.06,0-.1,0Z"/><path d="M446.99,252.07c-3.7,0-7.02-1.98-9.31-3.84l.17-.21c2.75,2.23,7,4.65,11.59,3.47,9.74-2.49,14.07-16.64,15.92-22.67,2.74-8.94,6.39-24.11,6.45-52.43,.09-11.82-.58-24.27-2-37.01-2.42-21.87-6.45-40.81-12.31-57.91-4.24-12.37-9.62-26.25-19.8-34.57l.17-.21c10.24,8.36,15.64,22.29,19.89,34.69,5.87,17.12,9.9,36.08,12.33,57.97,1.41,12.75,2.08,25.21,2,37.04-.06,28.36-3.72,43.55-6.46,52.51-1.86,6.08-6.23,20.33-16.12,22.86-.85,.22-1.7,.32-2.52,.32Z"/><path d="M452.77,249.89c-4.87,0-9.89-.54-15.04-1.63l.06-.27c9.94,2.1,19.42,2.17,28.2,.19,15.42-3.47,29.2-13.27,38.79-27.59,9.88-14.74,15.02-33.22,15.27-54.93-.11-12.37-1.79-24.41-4.97-35.77-5.74-20.48-16.01-39.17-29.69-54.06-13.79-14.99-30.26-25-47.63-28.92l.06-.27c17.43,3.94,33.95,13.97,47.77,29,13.71,14.92,24,33.65,29.76,54.17,3.19,11.38,4.87,23.44,4.98,35.84-.25,21.76-5.4,40.29-15.31,55.08-9.64,14.38-23.47,24.21-38.96,27.7-4.27,.96-8.7,1.44-13.28,1.44Z"/><path d="M437.74,248.26c-11.93-1.52-23.16-4.85-33.4-9.89-18.5-9.12-34.33-23.44-45.78-41.41-11.46-17.97-17.66-38.8-17.95-60.24,.14-12.31,2.11-23.74,5.85-33.97,6.66-18.19,19.08-33.7,34.98-43.68,16.1-10.11,35.58-14.4,56.34-12.41l-.03,.27c-20.7-1.98-40.12,2.29-56.17,12.37-15.85,9.95-28.23,25.41-34.87,43.54-3.74,10.2-5.7,21.6-5.84,33.88,.28,21.38,6.47,42.16,17.9,60.09,11.43,17.93,27.22,32.22,45.67,41.31,10.21,5.03,21.42,8.35,33.31,9.87l-.03,.27Z"/><path d="M437.98,248.26l-.03-.27c11.9-1.51,23.1-4.83,33.31-9.87,18.45-9.1,34.24-23.38,45.67-41.31,11.43-17.93,17.62-38.71,17.9-60.1-.14-12.27-2.1-23.67-5.84-33.87-6.64-18.13-19.02-33.59-34.87-43.54-16.05-10.08-35.47-14.35-56.17-12.37l-.03-.27c20.76-1.99,40.24,2.3,56.34,12.41,15.9,9.98,28.32,25.5,34.98,43.68,3.75,10.23,5.72,21.66,5.85,33.97-.28,21.44-6.49,42.27-17.95,60.24-11.46,17.97-27.29,32.29-45.78,41.41-10.23,5.05-21.47,8.38-33.4,9.89Z"/></g><circle class="cls-2" cx="172.29" cy="232.69" r="16.06"/><g><path class="cls-1" d="M335.12,19.64h-3.99l-7.77-12.74v12.74h-3.99V.27h3.99l7.78,12.77V.27h3.98V19.64Z"/><path class="cls-1" d="M350.26,11.24h-7.66v5.19h8.99v3.21h-12.98V.27h12.96V3.5h-8.97v4.62h7.66v3.13Z"/><path class="cls-1" d="M368.77,3.5h-5.93V19.64h-3.99V3.5h-5.85V.27h15.78V3.5Z"/><path class="cls-1" d="M386.33,14.05l2.61-13.78h3.98l-4.3,19.37h-4.02l-3.15-12.96-3.15,12.96h-4.02L369.98,.27h3.98l2.62,13.76,3.19-13.76h3.38l3.18,13.78Z"/><path class="cls-1" d="M410.99,10.39c0,1.91-.34,3.58-1.01,5.02s-1.64,2.55-2.89,3.33c-1.26,.78-2.69,1.17-4.32,1.17s-3.04-.39-4.3-1.16c-1.26-.77-2.23-1.87-2.93-3.31-.69-1.43-1.04-3.08-1.05-4.94v-.96c0-1.91,.34-3.59,1.03-5.04s1.66-2.56,2.91-3.34,2.69-1.16,4.3-1.16,3.05,.39,4.3,1.16c1.26,.78,2.23,1.89,2.91,3.34,.69,1.45,1.03,3.12,1.03,5.02v.86Zm-4.04-.88c0-2.03-.36-3.57-1.09-4.63-.73-1.06-1.77-1.58-3.11-1.58s-2.37,.52-3.1,1.56c-.73,1.04-1.1,2.57-1.1,4.58v.94c0,1.98,.36,3.51,1.09,4.6,.73,1.09,1.77,1.64,3.14,1.64s2.37-.53,3.09-1.58c.72-1.05,1.08-2.58,1.09-4.6v-.94Z"/><path class="cls-1" d="M421.06,12.55h-3.18v7.09h-3.99V.27h7.2c2.29,0,4.05,.51,5.29,1.53,1.24,1.02,1.86,2.46,1.86,4.32,0,1.32-.29,2.42-.86,3.31s-1.44,1.59-2.6,2.11l4.19,7.92v.19h-4.28l-3.63-7.09Zm-3.18-3.23h3.22c1,0,1.78-.25,2.33-.76,.55-.51,.82-1.21,.82-2.11s-.26-1.63-.78-2.16c-.52-.52-1.31-.78-2.39-.78h-3.21v5.81Z"/><path class="cls-1" d="M437.34,11.87l-2.08,2.23v5.53h-3.99V.27h3.99V9.05l1.76-2.41,4.94-6.37h4.91l-6.88,8.61,7.08,10.76h-4.75l-4.98-7.77Z"/></g><g><path class="cls-1" d="M466.41,16.43h8.47v3.21h-12.47V.26h3.99V16.43Z"/><path class="cls-1" d="M488.82,11.24h-7.66v5.19h8.99v3.21h-12.98V.26h12.96V3.5h-8.97v4.62h7.66v3.13Z"/><path class="cls-1" d="M503.43,15.64h-7l-1.33,3.99h-4.24L498.07,.26h3.7l7.25,19.37h-4.24l-1.34-3.99Zm-5.92-3.23h4.84l-2.43-7.25-2.41,7.25Z"/><path class="cls-1" d="M510.83,19.63V.26h5.96c1.7,0,3.23,.38,4.57,1.15,1.34,.77,2.39,1.86,3.15,3.27,.75,1.41,1.13,3.02,1.13,4.82v.89c0,1.8-.37,3.4-1.11,4.8-.74,1.4-1.79,2.49-3.13,3.26-1.35,.77-2.87,1.16-4.56,1.17h-6Zm3.99-16.14v12.93h1.93c1.56,0,2.75-.51,3.58-1.53,.82-1.02,1.25-2.48,1.26-4.38v-1.02c0-1.97-.41-3.46-1.22-4.48-.82-1.02-2.01-1.52-3.58-1.52h-1.97Z"/><path class="cls-1" d="M540.19,11.24h-7.66v5.19h8.99v3.21h-12.98V.26h12.96V3.5h-8.97v4.62h7.66v3.13Z"/><path class="cls-1" d="M551.03,12.54h-3.18v7.09h-3.99V.26h7.2c2.29,0,4.05,.51,5.29,1.53,1.24,1.02,1.86,2.46,1.86,4.32,0,1.32-.29,2.42-.86,3.31s-1.44,1.59-2.6,2.11l4.19,7.92v.19h-4.28l-3.63-7.09Zm-3.18-3.23h3.22c1,0,1.78-.25,2.33-.76,.55-.51,.82-1.21,.82-2.11s-.26-1.63-.78-2.16c-.52-.52-1.31-.78-2.39-.78h-3.21v5.81Z"/></g></svg>